<svg xmlns="http://www.w3.org/2000/svg" width="39" height="39" viewBox="0 0 39 39"><defs><clipPath id="pp78a"><path fill="#fff" d="M0 39V-1h39v40zm1.974-19.529C1.974 29.151 9.822 37 19.502 37S37.03 29.152 37.03 19.471c0-9.68-7.847-17.528-17.528-17.528-9.68 0-17.528 7.848-17.528 17.528z"/></clipPath></defs><g><g><path fill="#bec2c7" d="M19.502 1.943c9.68 0 17.528 7.848 17.528 17.528S29.183 37 19.502 37c-9.68 0-17.528-7.847-17.528-17.528 0-9.68 7.848-17.528 17.528-17.528z"/><path fill="#fff" d="M19.502 1.943c9.68 0 17.528 7.848 17.528 17.528S29.183 37 19.502 37c-9.68 0-17.528-7.847-17.528-17.528 0-9.68 7.848-17.528 17.528-17.528z"/><path fill="none" stroke="#e5e5e5" stroke-linecap="round" stroke-linejoin="round" stroke-miterlimit="20" stroke-width="4" d="M19.502 1.943c9.68 0 17.528 7.848 17.528 17.528S29.183 37 19.502 37c-9.68 0-17.528-7.847-17.528-17.528 0-9.68 7.848-17.528 17.528-17.528z" clip-path="url(&quot;#pp78a&quot;)"/></g></g></svg>